<svg width="21" height="24" viewBox="0 0 21 24" xmlns="http://www.w3.org/2000/svg">
    <g fill="none" fill-rule="evenodd">
        <path stroke="#292929" d="M4.668 3h7.837L17.1 8.122V21H4.668z"/>
        <path stroke="#292929" d="M12.505 3v5.376H17.1"/>
        <path d="M7.048 17v-1.897h.76c.333 0 .605-.069.818-.207.213-.137.37-.32.47-.546.1-.226.15-.474.15-.745 0-.285-.051-.541-.156-.77a1.207 1.207 0 0 0-.475-.539c-.213-.13-.482-.196-.807-.196H6.305V17h.743zm.714-2.625h-.714v-1.547h.714c.259 0 .445.069.56.207.114.137.17.327.17.57 0 .238-.056.426-.17.563-.115.138-.301.207-.56.207zM10.852 17c.475 0 .866-.102 1.174-.305a1.81 1.81 0 0 0 .685-.854c.148-.366.223-.796.223-1.291 0-.495-.075-.925-.223-1.292a1.81 1.81 0 0 0-.685-.853c-.308-.204-.7-.305-1.175-.305H9.464V17h1.387zm-.036-.77h-.609v-3.367h.61c.34 0 .608.068.806.203.197.135.338.329.423.581.085.252.128.553.128.903 0 .355-.043.657-.128.906-.085.25-.226.442-.423.575-.198.133-.466.199-.807.199zm3.153.77v-2.1h1.52v-.707h-1.52v-1.372h1.88V12.1h-2.622V17h.742z" fill="#292929" fill-rule="nonzero"/>
    </g>
</svg>
