<svg width="96" height="45" viewBox="0 0 96 45" xmlns="http://www.w3.org/2000/svg">
    <path d="M79.106 29.76c.894.017 1.667.197 2.321.542.654.344 1.16.813 1.516 1.406.356.593.535 1.263.535 2.01l-1.76-.03-.005-.194a2.51 2.51 0 0 0-.275-.962 2.342 2.342 0 0 0-.893-.946c-.403-.247-.91-.376-1.524-.386-.76-.027-1.386.155-1.88.547-.493.391-.746.94-.758 1.647-.01.6.151 1.063.485 1.389.335.326.807.597 1.416.814.61.218 1.312.467 2.108.747.662.252 1.257.542 1.785.872.527.329.937.75 1.228 1.261.291.512.43 1.161.416 1.948a3.687 3.687 0 0 1-.553 1.88c-.357.588-.889 1.062-1.595 1.423-.706.36-1.586.532-2.64.514-1.026-.018-1.916-.22-2.67-.607-.753-.386-1.33-.917-1.732-1.59-.401-.674-.594-1.45-.58-2.33l1.76.03.004.232c.023.458.14.886.35 1.284.245.465.609.838 1.09 1.12.483.281 1.084.429 1.803.441.947.017 1.684-.197 2.212-.641.528-.445.798-1.007.81-1.687.01-.56-.103-1.011-.337-1.356a2.692 2.692 0 0 0-.955-.846 8.056 8.056 0 0 0-1.39-.585 42.73 42.73 0 0 1-1.64-.568c-1.074-.393-1.866-.87-2.376-1.432-.51-.562-.758-1.29-.742-2.183 0-.747.185-1.407.555-1.981.37-.574.888-1.018 1.553-1.333.666-.315 1.452-.465 2.358-.45zm12.644-1.075 4.109 13.645-1.73.182-1.034-3.511-5.927.623-1.533 3.78-1.79.189 6.135-14.722 1.77-.186zm-1.044 2.12-2.98 7.433 4.993-.525-2.013-6.907zm-74.068-19.58v16.418c0 4.732-4.873 9.385-10.79 7.878-4.16-1.059-6.107-4.283-5.841-9.672h5.841c.368 2.872 1.19 4.087 2.463 3.645 1.91-.663 1.554-4.362 1.458-9.08-.015-.769-.024-1.732-.026-2.889v-1.093c.002-1.274.01-2.74.026-4.401l6.87-.807zM31.251 8.93c5.278 0 9.194 4.55 9.194 11.588C40.445 27.556 34.32 32 29.042 32c-5.278 0-9.278-4.273-9.278-11.31 0-7.038 6.209-11.76 11.487-11.76zm31.097 1.72c0 1.634-.937 3.25-2.81 4.847 2.485.592 3.727 2.233 3.727 4.921 0 4.033-2.063 6.643-6.164 7.336-2.534.428-7.004.966-13.41 1.613l-.587.059.642-22.15c5.771-.664 9.962-1.076 12.573-1.234 3.917-.238 6.029 2.155 6.029 4.607zm10.336-7.439-.844 22.474-6.478.69 1.019-22.47 6.303-.694zM30.929 14.764c-1.913 0-4.48 2.446-4.76 5.702-.28 3.256 1.285 5.755 3.372 5.755 2.086 0 4.527-2.514 4.527-6.033 0-3.519-1.225-5.424-3.139-5.424zM94.983.027 94.14 22.5l-6.479.69-5.81-11.213-.454 12.116-6.478.69 1.018-22.47 6.304-.694 5.863 11.782L88.68.72l6.303-.693zm-44.786 19.21v3.841c4.248.041 6.372-.695 6.372-2.208 0-1.512-2.124-2.057-6.372-1.633zm0-7.992v3.073c3.177-.006 4.765-.644 4.765-1.913 0-1.27-1.588-1.656-4.765-1.16z" fill="#FFF" fill-rule="evenodd"/>
</svg>
