<svg xmlns="http://www.w3.org/2000/svg" width="16" height="15.105" viewBox="0 0 16 15.105">
  <path id="required_1_" data-name="required (1)" d="M0,7.562,1.114,4.124A37.285,37.285,0,0,1,6.7,6.474Q6.245,2.093,6.22.447H9.731q-.075,2.4-.558,6a42.363,42.363,0,0,1,5.714-2.325L16,7.562A30.08,30.08,0,0,1,9.972,8.918a40.863,40.863,0,0,1,4.166,4.575l-2.906,2.059a59.946,59.946,0,0,1-3.316-5.206,39.062,39.062,0,0,1-3.147,5.206L1.913,13.493A50.7,50.7,0,0,1,5.93,8.918Q2.808,8.315,0,7.562" transform="translate(0 -0.447)" fill="#747c84"/>
</svg>
