<svg xmlns="http://www.w3.org/2000/svg" width="43.747" height="47.706" viewBox="0 0 43.747 47.706">
  <g id="Group_1" data-name="Group 1" transform="translate(-1014 -442)">
    <circle id="oval-copy" cx="14.5" cy="14.5" r="14.5" transform="translate(1056.007 471.962) rotate(144)" fill="none" stroke="#fff" stroke-width="1"/>
    
    <path id="combined-shape_2_" data-name="combined-shape (2)" d="M43.147,8.5l.6.715L39.6,12.689l1.795,2.141-.566.474-2.393-2.856L43.147,8.5ZM2.326,9.1a1.677,1.677,0,0,1,.868.377l-.627.758a.888.888,0,0,0-.427-.193.975.975,0,0,0-.5.05,1.123,1.123,0,0,0-.478.358,1.1,1.1,0,0,0-.292.7.767.767,0,0,0,.306.622.709.709,0,0,0,.56.19,1.63,1.63,0,0,0,.617-.242l.764-.463a4.2,4.2,0,0,1,.8-.4,1.63,1.63,0,0,1,.792-.091,1.608,1.608,0,0,1,.808.388,1.647,1.647,0,0,1,.515.734,1.737,1.737,0,0,1,.049.963,2.5,2.5,0,0,1-.552,1.06,2.776,2.776,0,0,1-.938.763,1.863,1.863,0,0,1-1.03.182,1.935,1.935,0,0,1-.992-.439l.627-.759a1.183,1.183,0,0,0,.862.268,1.254,1.254,0,0,0,.863-.506,1.251,1.251,0,0,0,.334-.812.83.83,0,0,0-.318-.656.872.872,0,0,0-.5-.224,1.107,1.107,0,0,0-.51.092,3.665,3.665,0,0,0-.55.292c-.191.122-.4.25-.612.382a2.532,2.532,0,0,1-1.154.431,1.385,1.385,0,0,1-.992-.358,1.575,1.575,0,0,1-.544-.762,1.673,1.673,0,0,1-.016-.926,2.432,2.432,0,0,1,.51-.953A2.355,2.355,0,0,1,1.4,9.257,1.714,1.714,0,0,1,2.326,9.1ZM36.177,3.12l.788.5-2.89,4.576,2.362,1.492-.394.624-3.15-1.99,3.284-5.2ZM10.192,2.89a2.363,2.363,0,0,1,1.493.84l-.9.521A1.46,1.46,0,0,0,9.9,3.778a1.712,1.712,0,0,0-1.094.27,1.815,1.815,0,0,0-.946,1.275,2.563,2.563,0,0,0,.4,1.761A2.538,2.538,0,0,0,9.59,8.3a1.827,1.827,0,0,0,1.575-.192,1.774,1.774,0,0,0,.784-.8A1.375,1.375,0,0,0,12,6.334l.9-.52a2.289,2.289,0,0,1-.034,1.675,2.832,2.832,0,0,1-1.267,1.334,2.994,2.994,0,0,1-1.565.446,2.673,2.673,0,0,1-1.445-.452A3.644,3.644,0,0,1,7.438,7.565a3.664,3.664,0,0,1-.524-1.62,2.7,2.7,0,0,1,.324-1.483A2.971,2.971,0,0,1,8.4,3.321a2.81,2.81,0,0,1,1.793-.43ZM28.317.165A3.093,3.093,0,0,1,29.8.885,2.806,2.806,0,0,1,30.619,2.2a3.476,3.476,0,0,1,.039,1.7,3.47,3.47,0,0,1-.71,1.544,2.81,2.81,0,0,1-1.272.88,3.371,3.371,0,0,1-3.133-.649A2.84,2.84,0,0,1,24.72,4.36a3.44,3.44,0,0,1-.042-1.7,3.434,3.434,0,0,1,.714-1.543,2.846,2.846,0,0,1,1.277-.88A3.107,3.107,0,0,1,28.317.165ZM19.153.1a1.644,1.644,0,0,1,.8.541,1.9,1.9,0,0,1,.377.877,1.869,1.869,0,0,1-.13,1.073,1.672,1.672,0,0,1-.823.813l1.719,2.36-1.066.177-1.584-2.25-1.084.18.405,2.445-.919.152L15.841.4,17.931.05A2.572,2.572,0,0,1,19.153.1Zm7.853.937a1.881,1.881,0,0,0-.882.643,2.825,2.825,0,0,0-.508,1.178,2.8,2.8,0,0,0,0,1.283,1.864,1.864,0,0,0,.553.94,2.128,2.128,0,0,0,1.028.5,2.1,2.1,0,0,0,1.137-.052,1.91,1.91,0,0,0,.881-.643,2.772,2.772,0,0,0,.514-1.176,2.786,2.786,0,0,0,0-1.284,1.913,1.913,0,0,0-.555-.94,2.307,2.307,0,0,0-2.164-.449ZM18,.831l-1.108.184.358,2.159,1.117-.186a1.234,1.234,0,0,0,.865-.454,1.111,1.111,0,0,0,.16-.837,1.077,1.077,0,0,0-.415-.729A1.288,1.288,0,0,0,18,.831Z" transform="translate(1014.001 442)" fill="#fff" fill-rule="evenodd"/>
  </g>
</svg>