<svg width="85" height="81" viewBox="0 0 85 81" xmlns="http://www.w3.org/2000/svg">
    <defs>
        <radialGradient cx="49.997%" cy="50.109%" fx="49.997%" fy="50.109%" r="65.919%" gradientTransform="scale(-.93405 -1) rotate(-88.168 -.535 .534)" id="dii7dyzjga">
            <stop stop-color="#F3B963" offset="0%"/>
            <stop stop-color="#EAA022" offset="100%"/>
        </radialGradient>
    </defs>
    <g fill="none" fill-rule="evenodd">
        <path d="M20.081 6.436c7.707-1.113 14.525-1.63 20.452-1.552 6.284.083 13.663.586 22.137 1.508A17 17 0 0 1 77.38 19.41c1.529 6.513 2.224 12.772 2.085 18.779-.15 6.494-.883 13.423-2.197 20.786a17 17 0 0 1-13.186 13.638c-6.515 1.392-13.53 2.149-21.046 2.272-7.643.125-15.128-.295-22.453-1.261a17 17 0 0 1-14.59-14.328A132.837 132.837 0 0 1 4.509 39.72c-.008-6.255.37-12.444 1.135-18.567A17 17 0 0 1 20.081 6.436z" fill="url(#dii7dyzjga)" transform="rotate(-8 45.237 33.558)"/>
        <path d="M62.037 47.888c.577.01 1.076.126 1.499.349.423.223.749.526.98.909.23.383.345.815.345 1.298l-1.137-.02-.005-.15a1.63 1.63 0 0 0-.176-.596 1.513 1.513 0 0 0-.577-.611c-.26-.16-.588-.243-.984-.25-.491-.017-.896.1-1.215.354-.318.253-.482.607-.49 1.064-.007.387.098.686.314.897.216.21.52.386.915.526l1.361.483a6.6 6.6 0 0 1 1.153.562c.341.213.605.485.794.815.188.331.277.75.268 1.259-.007.43-.126.835-.357 1.214-.23.38-.574.686-1.03.92-.457.233-1.025.343-1.705.331-.663-.011-1.238-.142-1.725-.392a2.703 2.703 0 0 1-1.12-1.027c-.259-.435-.383-.937-.373-1.505l1.136.02.007.208c.02.274.095.531.222.77.158.3.393.542.704.724.312.182.7.277 1.165.285.611.01 1.087-.127 1.428-.414.341-.287.516-.65.523-1.09.007-.361-.066-.653-.217-.875a1.739 1.739 0 0 0-.617-.548 5.204 5.204 0 0 0-.898-.377c-.338-.11-.692-.232-1.06-.367-.693-.254-1.205-.562-1.534-.925-.33-.364-.49-.834-.48-1.41 0-.483.12-.91.359-1.28s.573-.658 1.003-.861c.43-.204.938-.3 1.524-.29zm8.167-.695 2.655 8.814-1.118.118-.667-2.268-3.83.402-.99 2.443-1.156.121 3.963-9.51 1.143-.12zm-.674 1.37-1.925 4.8 3.225-.338-1.3-4.462zM21.695 35.197V45.75c0 3.042-3.13 6.033-6.929 5.064-2.67-.68-3.921-2.753-3.75-6.216h3.75c.236 1.845.763 2.626 1.581 2.342 1.227-.426.998-2.803.937-5.836-.01-.468-.015-1.048-.017-1.74v-.95c.002-.788.007-1.687.017-2.698l4.41-.519zm9.382-1.474c3.39 0 5.904 2.925 5.904 7.448 0 4.524-3.933 7.38-7.322 7.38-3.39 0-5.957-2.746-5.957-7.27 0-4.522 3.986-7.558 7.375-7.558zm19.968 1.105c0 1.051-.602 2.09-1.804 3.116 1.595.381 2.392 1.435 2.392 3.163 0 2.593-1.324 4.27-3.957 4.715-1.615.274-4.453.616-8.514 1.027l-.474.048.413-14.236c3.705-.428 6.396-.692 8.073-.794 2.515-.153 3.87 1.385 3.87 2.961zm6.637-4.78-.542 14.445-4.16.443.654-14.443 4.048-.445zM30.87 37.472c-1.229 0-2.878 1.573-3.057 3.665-.18 2.093.825 3.7 2.165 3.7s2.907-1.616 2.907-3.878-.787-3.487-2.015-3.487zM72 28l-.542 14.445-4.16.443-3.73-7.208-.292 7.789-4.16.443.655-14.443 4.047-.445 3.765 7.572.37-8.15L72 28zM43.243 40.348v2.469c2.727.026 4.09-.447 4.09-1.42 0-.972-1.363-1.322-4.09-1.05zm0-5.137v1.975c2.04-.004 3.06-.414 3.06-1.23 0-.816-1.02-1.064-3.06-.745z" fill="#FFF"/>
    </g>
</svg>
